<svg xmlns="http://www.w3.org/2000/svg" width="960" height="760" viewBox="0 0 960 760" fill="none">
  <defs>
    <linearGradient id="bg" x1="66" y1="52" x2="852" y2="692" gradientUnits="userSpaceOnUse">
      <stop stop-color="#E6B665" />
      <stop offset="1" stop-color="#8B5728" />
    </linearGradient>
    <linearGradient id="tape" x1="0" y1="0" x2="1" y2="1">
      <stop stop-color="#3C3633" />
      <stop offset="1" stop-color="#171311" />
    </linearGradient>
    <linearGradient id="highlight" x1="0" y1="0" x2="1" y2="1">
      <stop stop-color="#FFF9F1" stop-opacity="0.95" />
      <stop offset="1" stop-color="#DCCCB6" stop-opacity="0.65" />
    </linearGradient>
    <filter id="shadow" x="39" y="64" width="887" height="630" filterUnits="userSpaceOnUse" color-interpolation-filters="sRGB">
      <feFlood flood-opacity="0" result="BackgroundImageFix"/>
      <feColorMatrix in="SourceAlpha" type="matrix" values="0 0 0 0 0 0 0 0 0 0 0 0 0 0 0 0 0 0 127 0" result="hardAlpha"/>
      <feOffset dy="16"/>
      <feGaussianBlur stdDeviation="18"/>
      <feColorMatrix type="matrix" values="0 0 0 0 0.21 0 0 0 0 0.14 0 0 0 0 0.08 0 0 0 0.28 0"/>
      <feBlend mode="normal" in2="BackgroundImageFix" result="effect1_dropShadow_1_2"/>
      <feBlend mode="normal" in="SourceGraphic" in2="effect1_dropShadow_1_2" result="shape"/>
    </filter>
  </defs>
  <rect width="960" height="760" rx="40" fill="url(#bg)"/>
  <g opacity="0.16">
    <circle cx="158" cy="134" r="112" fill="#FFF5E8"/>
    <circle cx="808" cy="602" r="140" fill="#FFF5E8"/>
  </g>
  <g filter="url(#shadow)">
    <rect x="96" y="256" width="492" height="286" rx="24" transform="rotate(-12 96 256)" fill="url(#tape)"/>
    <rect x="128" y="286" width="428" height="226" rx="14" transform="rotate(-12 128 286)" stroke="#716960" stroke-width="8"/>
    <circle cx="256" cy="394" r="56" fill="#E8E2D5"/>
    <circle cx="256" cy="394" r="20" fill="#2A2522"/>
    <circle cx="430" cy="356" r="56" fill="#E8E2D5"/>
    <circle cx="430" cy="356" r="20" fill="#2A2522"/>
    <rect x="352" y="164" width="430" height="262" rx="24" transform="rotate(10 352 164)" fill="url(#tape)"/>
    <rect x="384" y="194" width="366" height="202" rx="14" transform="rotate(10 384 194)" stroke="#6E665F" stroke-width="8"/>
    <circle cx="508" cy="288" r="54" fill="#E8E2D5"/>
    <circle cx="508" cy="288" r="18" fill="#2A2522"/>
    <circle cx="666" cy="316" r="54" fill="#E8E2D5"/>
    <circle cx="666" cy="316" r="18" fill="#2A2522"/>
    <rect x="286" y="250" width="360" height="212" rx="24" transform="rotate(16 286 250)" fill="url(#highlight)" stroke="#F2ECE1" stroke-width="8"/>
    <rect x="362" y="292" width="204" height="54" rx="10" transform="rotate(16 362 292)" fill="#20160F"/>
    <circle cx="414" cy="366" r="40" fill="#FFFDF8"/>
    <circle cx="414" cy="366" r="14" fill="#2A2522"/>
    <circle cx="534" cy="400" r="40" fill="#FFFDF8"/>
    <circle cx="534" cy="400" r="14" fill="#2A2522"/>
  </g>
  <rect x="54" y="564" width="852" height="136" rx="26" fill="#241912" fill-opacity="0.58"/>
  <circle cx="136" cy="632" r="22" fill="#F6EBDC" fill-opacity="0.9"/>
  <circle cx="136" cy="632" r="8" fill="#2A2522"/>
  <circle cx="208" cy="632" r="22" fill="#F6EBDC" fill-opacity="0.9"/>
  <circle cx="208" cy="632" r="8" fill="#2A2522"/>
  <path d="M284 612H852" stroke="#F6EBDC" stroke-opacity="0.86" stroke-width="14" stroke-linecap="round"/>
  <path d="M284 650H744" stroke="#F6EBDC" stroke-opacity="0.46" stroke-width="10" stroke-linecap="round"/>
</svg>